<svg xmlns="http://www.w3.org/2000/svg" viewBox="0 0 1000 1000"><defs><style>.cls-1,.cls-2,.cls-3,.cls-4,.cls-5{fill:none;stroke-miterlimit:10;}.cls-1{stroke:#fff;}.cls-1,.cls-2,.cls-3,.cls-4{stroke-width:15px;}.cls-2{stroke:#f44336;}.cls-3{stroke:#ff9800;}.cls-4,.cls-5{stroke:#4caf50;}.cls-5{stroke-width:72px;}.cls-6{font-size:150px;font-family:RobotoMono-Regular, Roboto Mono;letter-spacing:-0.06em;}.cls-11,.cls-6{fill:#fff;}.cls-10,.cls-7,.cls-8,.cls-9{font-size:248.65px;}.cls-7{letter-spacing:-0.14em;}.cls-8{letter-spacing:-0.14em;}.cls-9{letter-spacing:-0.05em;}.cls-10{letter-spacing:0em;}.cls-11{font-size:100px;font-family:Roboto-Thin, Roboto;font-weight:200;}.cls-12{letter-spacing:-0.02em;}.cls-13{letter-spacing:-0.03em;}.cls-14{letter-spacing:-0.03em;}.cls-15{letter-spacing:-0.03em;}.cls-16{letter-spacing:-0.04em;}</style></defs><title>Usage Meter</title><g id="Circle_Base" data-name="Circle Base"><path id="Circle_Base-2" data-name="Circle Base" class="cls-1" d="M765.17,765.17A373.86,373.86,0,0,0,875,500c0-207.11-167.89-375-375-375S125,292.89,125,500A373.8,373.8,0,0,0,234.34,764.66"/><g id="Usage_Levels" data-name="Usage Levels"><line id="End" class="cls-1" x1="208.22" y1="789.57" x2="260.24" y2="739.75"/><line id="Five" class="cls-1" x1="89.64" y1="500" x2="160.36" y2="500"/><line id="Zero" class="cls-2" x1="740" y1="259" x2="790" y2="209"/><line id="Orange" class="cls-3" x1="500" y1="160.36" x2="500" y2="89.64"/><line id="Green" class="cls-4" x1="210" y1="210" x2="260" y2="260"/><line id="One" class="cls-1" x1="839.64" y1="500" x2="910.36" y2="500"/><line id="Zero-2" data-name="Zero" class="cls-1" x1="740" y1="740" x2="790" y2="790"/><path id="Circle_Base-3" data-name="Circle Base" class="cls-5" d="M274.53,200.32C183.72,268.76,125,377.52,125,500A373.7,373.7,0,0,0,229.06,759.25"/></g></g><g id="Price_Per_Hour" data-name="Price Per Hour"><text class="cls-6" transform="translate(201.62 572.67)">£<tspan class="cls-7" x="81.4" y="0">0</tspan><tspan class="cls-8" x="194.69" y="0">.</tspan><tspan class="cls-9" x="309.84" y="0">5</tspan><tspan class="cls-10" x="447.54" y="0">2</tspan></text><text class="cls-11" transform="translate(327.24 696.48)"><tspan class="cls-12">p</tspan><tspan class="cls-13" x="52.26" y="0">e</tspan><tspan x="99.48" y="0">r </tspan><tspan class="cls-14" x="156.85" y="0">h</tspan><tspan class="cls-15" x="208.86" y="0">o</tspan><tspan class="cls-16" x="260.93" y="0">u</tspan><tspan x="312.08" y="0">r</tspan></text></g></svg>